<svg width="24" height="25" viewBox="0 0 24 25" fill="none" xmlns="http://www.w3.org/2000/svg">
<path d="M1.6875 1.72266C0 3.44531 0 6.21797 0 11.7578V12.7422C0 18.282 0 21.0547 1.6875 22.7773C3.375 24.5 6.09107 24.5 11.5179 24.5H12.4821C17.9089 24.5 20.625 24.5 22.3125 22.7773C24 21.0547 24 18.282 24 12.7422V11.7578C24 6.21797 24 3.44531 22.3125 1.72266C20.625 0 17.9089 0 12.4821 0H11.5179C6.09107 0 3.375 0 1.6875 1.72266ZM4.05 7.45391H6.7875C6.87857 12.1297 8.89821 14.1094 10.5 14.5141V7.45391H13.0821V11.4844C14.6625 11.3094 16.3179 9.47188 16.8804 7.45391H19.4625C19.2482 8.49844 18.8304 9.49375 18.225 10.3688C17.6196 11.2438 16.8482 11.982 15.9482 12.5344C16.95 13.043 17.8339 13.7594 18.5411 14.6453C19.2536 15.5258 19.7679 16.5484 20.0625 17.6477H17.2179C16.9607 16.6961 16.425 15.8375 15.6911 15.1922C14.9518 14.5414 14.0464 14.1313 13.0821 14.0055V17.6477H12.7714C7.30179 17.6477 4.17857 13.8195 4.05 7.45391Z" fill="black"/>
</svg>
